# xmcd
#
# Track frame offsets:
#	150
#	19170
#	37139
#	53863
#	71574
#	95342
#	114979
#	134487
#	153741
#	170868
#	184795
#	201411
#	218925
#	236766
#	257169
#	265124
#	278680
#	295420
#	326582
#
# Disc length: 4846 seconds
#
# Revision: 0
# Processed by: cddbd v1.5.2PL0 Copyright (c) Steve Scherf et al.
# Submitted via: dBpowerAMP V4.0
#
DISCID=2f12ec13
DTITLE=Janis Joplin - Anthology
DYEAR=1980
DGENRE=R&B
TTITLE0=Piece Of My Heart
TTITLE1=Summertime
TTITLE2=Maybe
TTITLE3=Try (Just A Little Bit Harder)
TTITLE4=To Love Somebody
TTITLE5=Kozmic Blues
TTITLE6=Turtle Blues
TTITLE7=Oh, Sweet Mary
TTITLE8=Little Girl Blues
TTITLE9=Trust Me
TTITLE10=Move Over
TTITLE11=Half Moon
TTITLE12=Cry Baby
TTITLE13=Me And Bobby McGee
TTITLE14=Mercedes Benz
TTITLE15=Down On Me
TTITLE16=Bye Bye Baby
TTITLE17=Get It While You Can
TTITLE18=Ball And Chain
EXTD=
EXTT0=
EXTT1=
EXTT2=
EXTT3=
EXTT4=
EXTT5=
EXTT6=
EXTT7=
EXTT8=
EXTT9=
EXTT10=
EXTT11=
EXTT12=
EXTT13=
EXTT14=
EXTT15=
EXTT16=
EXTT17=
EXTT18=
PLAYORDER=
